<svg xmlns="http://www.w3.org/2000/svg" viewBox="0 0 817 543" fill="none" stroke="brown" stroke-width="6">
  <path d="M 200,361 Z" fill="orange"/>
  <path d="M 152,330 Z" fill="orange"/>
  <path d="M 148,326 Z" fill="orange"/>
  <path d="M 175,115 L 178,127 L 208,155 L 209,165 L 233,190 L 245,180 L 245,161 L 236,151 L 235,137 L 209,113 Z" fill="orange"/>
  <path d="M 23,138 L 20,142 L 21,171 L 8,187 L 10,211 L 24,222 L 51,196 L 67,198 L 104,236 L 105,272 L 144,311 L 148,324 L 155,330 L 172,330 L 176,335 L 184,336 L 197,348 L 207,350 L 208,355 L 200,365 L 200,384 L 224,408 L 224,442 L 221,442 L 217,449 L 214,507 L 218,514 L 233,515 L 235,506 L 230,497 L 241,485 L 241,470 L 298,413 L 299,396 L 307,388 L 308,378 L 299,368 L 281,367 L 249,335 L 220,335 L 214,339 L 205,339 L 187,320 L 172,320 L 167,315 L 167,305 L 176,296 L 195,296 L 197,303 L 205,302 L 206,292 L 214,284 L 215,275 L 241,249 L 242,238 L 254,237 L 260,230 L 259,221 L 251,213 L 249,200 L 244,195 L 232,195 L 220,184 L 207,184 L 204,186 L 204,224 L 199,225 L 174,198 L 175,193 L 191,176 L 190,155 L 180,146 L 174,146 L 166,153 L 157,153 L 162,145 L 158,133 L 144,118 L 128,115 L 117,106 L 110,106 L 106,110 L 105,129 L 113,141 L 90,140 L 82,147 L 74,147 L 60,136 Z" fill="orange"/>
  <path d="M 130,71 L 119,81 L 118,89 L 130,101 L 135,101 L 147,90 L 150,83 L 140,72 Z" fill="orange"/>
  <path d="M 208,2 L 164,46 L 164,63 L 199,101 L 207,103 L 212,94 L 211,70 L 227,55 L 226,89 L 261,123 L 263,176 L 280,194 L 286,194 L 290,191 L 290,181 L 338,134 L 339,69 L 355,51 L 355,32 L 351,27 L 336,26 L 335,0 L 282,0 L 245,38 L 245,10 L 238,2 Z" fill="orange"/>
  <path d="M 57,0 L 0,0 L 0,17 L 3,21 L 0,27 L 3,35 L 0,38 L 0,57 Z" fill="orange"/>
</svg>