<svg xmlns="http://www.w3.org/2000/svg" viewBox="0 0 817 543" fill="none" stroke="brown" stroke-width="6">
  <path d="M 803,483 L 799,488 L 799,497 L 805,502 L 816,503 L 816,484 Z" fill="orange"/>
  <path d="M 733,419 Z" fill="orange"/>
  <path d="M 668,394 Z" fill="orange"/>
  <path d="M 642,412 L 639,418 L 639,432 L 642,434 L 643,446 L 647,449 L 669,445 L 672,441 L 682,441 L 695,453 L 694,455 L 702,459 L 718,459 L 729,448 L 729,442 L 732,440 L 732,422 L 717,407 L 715,397 L 709,393 L 700,400 L 690,390 L 675,390 L 658,407 L 648,408 Z" fill="orange"/>
  <path d="M 620,381 Z" fill="orange"/>
  <path d="M 681,367 L 687,377 L 692,377 L 703,388 L 713,384 L 719,390 L 725,390 L 725,384 L 720,380 L 722,379 L 720,380 L 711,370 L 700,366 Z" fill="orange"/>
  <path d="M 601,350 L 598,357 L 602,363 L 607,365 L 614,377 L 624,380 L 625,368 L 606,350 Z" fill="orange"/>
  <path d="M 649,346 L 637,357 L 629,359 L 628,366 L 637,375 L 644,375 L 652,368 L 654,351 Z" fill="orange"/>
  <path d="M 654,320 L 653,334 L 658,335 L 663,325 L 660,320 Z" fill="orange"/>
  <path d="M 593,89 Z" fill="orange"/>
  <path d="M 805,4 L 798,11 L 798,20 L 805,27 L 814,27 L 816,19 L 811,23 L 808,21 L 814,18 L 812,10 L 804,13 L 804,19 L 801,15 L 806,8 L 816,10 L 816,5 Z" fill="orange"/>
</svg>